<svg width="14" height="13" fill="none" xmlns="http://www.w3.org/2000/svg"><path d="M6.631 10.256 4.408 8.18a.471.471 0 0 0-.635 0L0 11.695v.478c0 .447.391.81.869.81h12.16c.477 0 .868-.363.868-.81v-.478l-3.773-3.517a.475.475 0 0 0-.634 0l-2.224 2.076a.471.471 0 0 1-.635.002Zm4.726-3.226 2.223 2.076c.175.164.317.101.317-.139V4.501c0-.24-.142-.303-.317-.139l-2.223 2.076a.397.397 0 0 0 0 .592ZM.87.823C.39.823 0 1.188 0 1.633v.147l6.597 6.18a.468.468 0 0 0 .633 0l6.667-6.254v-.072c0-.446-.391-.81-.869-.81H.868ZM0 4.501v4.466c0 .24.142.303.317.139L2.54 7.03a.398.398 0 0 0 0-.593L.317 4.362C.142 4.198 0 4.26 0 4.501Z" fill="#000"/></svg>