<svg width="14" height="12" fill="none" xmlns="http://www.w3.org/2000/svg"><path d="M14 1.902a5.759 5.759 0 0 1-1.65.452A2.88 2.88 0 0 0 13.613.766a5.728 5.728 0 0 1-1.823.696A2.872 2.872 0 0 0 9.693.556a2.872 2.872 0 0 0-2.798 3.526 8.159 8.159 0 0 1-5.92-3 2.87 2.87 0 0 0 .889 3.834 2.866 2.866 0 0 1-1.302-.36v.036c0 1.392.99 2.554 2.304 2.817a2.889 2.889 0 0 1-1.296.05 2.874 2.874 0 0 0 2.682 1.994 5.76 5.76 0 0 1-4.251 1.188 8.12 8.12 0 0 0 4.403 1.29c5.282 0 8.172-4.376 8.172-8.17 0-.126-.003-.25-.01-.373A5.8 5.8 0 0 0 14 1.902Z" fill="#000"/></svg>